<svg xmlns="http://www.w3.org/2000/svg" xmlns:xlink="http://www.w3.org/1999/xlink" version="1.1" id="Layer_1" x="0px" y="0px" viewBox="0 0 800 800" style="enable-background:new 0 0 800 800;" xml:space="preserve">
<style type="text/css">
	.st0{fill:#FEBD57;}
	.st1{fill:#FFB24D;}
	.st2{fill:#FFFFFA;}
	.st3{fill:#FFEBA0;}
</style>
<circle class="st0" cx="400" cy="400" r="293.4"/>
<path class="st1" d="M400,106.6c-0.8,0-1.6,0.1-2.5,0.1v586.6c0.8,0,1.6,0.1,2.5,0.1c162,0,293.4-131.4,293.4-293.4  S562,106.6,400,106.6z"/>
<path class="st2" d="M552.9,380.3H242.2c-10.8,0-19.7,8.9-19.7,19.7s8.9,19.7,19.7,19.7h310.6c10.8,0,19.7-8.9,19.7-19.7  S563.7,380.3,552.9,380.3z"/>
<path class="st3" d="M552.9,380.3H397.5v39.4h155.3c10.8,0,19.7-8.9,19.7-19.7S563.7,380.3,552.9,380.3z"/>
</svg>